<?xml version="1.0" encoding="UTF-8" standalone="no"?>
<svg
   xmlns:dc="http://purl.org/dc/elements/1.1/"
   xmlns:cc="http://creativecommons.org/ns#"
   xmlns:rdf="http://www.w3.org/1999/02/22-rdf-syntax-ns#"
   xmlns:svg="http://www.w3.org/2000/svg"
   xmlns="http://www.w3.org/2000/svg"
   width="1620.1686"
   height="933.1051"
   version="1.1"
   viewBox="0 0 972.09764 559.86304"
   id="svg6">
  <defs
     id="defs10" />
  <metadata
     id="metadata2">
    <rdf:RDF>
      <cc:Work
         rdf:about="">
        <dc:format>image/svg+xml</dc:format>
        <dc:type
           rdf:resource="http://purl.org/dc/dcmitype/StillImage" />
        <dc:title></dc:title>
      </cc:Work>
    </rdf:RDF>
  </metadata>
  <path
     d="m 968.44051,210.52344 c -1.4215,-1.4215 -29.716,-1.5714 -296.49999,-1.5714 -162.21001,0 -294.93001,-0.37517 -294.93001,-0.83371 0,-0.45855 2.2601,-6.646 5.0224,-13.75 2.7624,-7.104 6.3355,-16.291 7.9403,-20.416 1.6048,-4.125 5.0072,-12.9 7.5609,-19.5 2.5537,-6.6 6.6756,-17.175 9.1597,-23.5 10.68,-27.192 13.468,-34.334005 19.131,-49.000005 3.2918,-8.525 8.0551,-20.788 10.585,-27.25 2.5301,-6.4625 6.652,-17.038 9.1598,-23.5 2.5078,-6.4625 5.9353,-15.226 7.6166,-19.475 3.2959,-8.3287996 3.1877,-11.1089996 -0.4125,-10.5949996 -2.7042,0.3856 -2.0526,-1.0258 -14.805,32.0699996 -5.6691,14.712 -10.679,26.75 -11.133,26.75 -0.454,0 -0.82557,-1.0366 -0.82557,-2.3037 0,-3.8824 -4.8529,-12.306 -9.6224,-16.702 -6.8859,-6.3472 -12.357,-8.464 -21.878,-8.4643 l -8,-2.7e-4 -28,13.15 c -15.4,7.2324 -33.4,15.721 -40,18.864 -6.6,3.143 -26.4,12.465 -44,20.715 -17.6,8.25 -36.05,16.915005 -41,19.254005 -4.95,2.339 -20.7,9.7392 -35,16.445 -76.513,35.879 -76.946,36.124 -81.969,46.39 -6.1654,12.602 -3.6068,27.238 6.5385,37.404 l 4.2416,4.25 H 65.736839 c -54.652,0 -61.7610004,0.17688 -63.1560004,1.5714 -1.82679997,1.8268 -1.98819997,3.7813 -0.53625,6.4943 1.0176,1.9014 4.1088,1.9343 182.0000014,1.9343 110.29,0 180.96,0.36151 180.96,0.9257 0,0.73684 -26.495,69.326 -51.211,132.57 -2.1493,5.5 -5.2044,13.375 -6.789,17.5 -1.5846,4.125 -4.7347,12.225 -7,18 -2.2653,5.775 -5.4128,13.875 -6.9945,18 -1.5817,4.125 -5.3317,13.8 -8.3336,21.5 -13.647,35.006 -22.036,56.587 -24.683,63.5 -1.5794,4.125 -6.3019,16.275 -10.495,27 -15.018,38.415 -14.891,38.033 -13.18,39.743 0.84151,0.84151 2.149,1.2925 2.9054,1.0022 0.7564,-0.2903 4.2274,-7.8893 7.7131,-16.887 14.529,-37.503 16.316,-41.859 17.171,-41.859 0.49265,0 0.89572,1.058 0.89572,2.3511 0,3.1598 4.4299,11.384 8.3152,15.438 1.7338,1.8088 5.819,4.6213 9.0783,6.25 5.0952,2.5461 7.0552,2.9613 13.981,2.9613 8.7782,0 8.5027,0.11112 57.449,-23.163 6.972,-3.3152 22.576,-10.663 34.676,-16.329 12.1,-5.666 26.5,-12.429 32,-15.029 23.561,-11.138 29.819,-14.086 44.5,-20.961 8.525,-3.9921 19.55,-9.1712 24.5,-11.509 4.95,-2.338 13.275,-6.2706 18.5,-8.7392 5.225,-2.4686 19.85,-9.3396 32.5,-15.269 22.628,-10.606 32.181,-15.104 52,-24.483 5.5,-2.6028 16.075,-7.5633 23.5,-11.023 7.425,-3.46 19.35,-9.0772 26.5,-12.483 7.15,-3.4055 26.27501,-12.405 42.50001,-19.999 16.225,-7.5938 34.9,-16.372 41.5,-19.508 6.6,-3.1355 21.9,-10.339 34,-16.008 12.1,-5.6687 28.075,-13.189 35.5,-16.712 7.425,-3.523 21.085,-9.963 30.355,-14.312 19.044,-8.9335 24.177,-12.784 28.339,-21.259 2.3667,-4.8195 2.8062,-6.9706 2.8062,-13.735 0,-7.0447 -0.3995,-8.8326 -3.2823,-14.688 -1.8052,-3.667 -4.5928,-7.77 -6.1945,-9.1178 -1.6018,-1.3478 -2.6373,-2.7256 -2.3011,-3.0617 0.3362,-0.3361 27.96999,-0.61122 61.40899,-0.61122 59.086,0 60.827,-0.0545 61.833,-1.9343 1.452,-2.713 1.2906,-4.6675 -0.5362,-6.4943 z"
     id="path4"
     style="stroke:#000000;stroke-width:0.17999999;stroke-miterlimit:4;stroke-dasharray:none;stroke-opacity:1;fill:#000000;fill-opacity:1" />
</svg>
